<?xml version="1.0" standalone="no"?>
<!DOCTYPE svg PUBLIC "-//W3C//DTD SVG 20010904//EN"
 "http://www.w3.org/TR/2001/REC-SVG-20010904/DTD/svg10.dtd">
<svg version="1.0" xmlns="http://www.w3.org/2000/svg"
 width="260.000000pt" height="260.000000pt" viewBox="0 0 260.000000 260.000000"
 preserveAspectRatio="xMidYMid meet">
<metadata>
Created by potrace 1.11, written by Peter Selinger 2001-2013
</metadata>
<g transform="translate(0.000000,260.000000) scale(0.100000,-0.100000)"
fill="#000000" stroke="none">
<path d="M1292 2499 c-8 -12 -9 -18 -3 -14 7 3 11 -3 11 -16 0 -16 -3 -19 -13
-11 -10 8 -16 5 -27 -11 -12 -20 -12 -21 3 -9 9 8 21 11 27 7 7 -4 10 -139 10
-405 0 -398 0 -399 -22 -420 -12 -11 -26 -20 -31 -20 -6 0 -57 -22 -114 -50
-57 -27 -109 -50 -114 -50 -6 0 -24 -9 -39 -20 -20 -14 -38 -19 -57 -15 -20 4
-23 3 -9 -3 17 -7 15 -10 -15 -22 -19 -7 -52 -21 -74 -31 -188 -85 -194 -87
-189 -71 3 10 -1 7 -7 -6 -7 -12 -23 -25 -35 -28 -48 -12 -47 -30 3 -59 57
-33 323 -190 547 -322 l158 -94 102 59 c98 57 649 383 653 386 0 0 -77 132
-174 291 -96 160 -262 436 -370 615 -108 179 -199 328 -202 332 -4 4 -12 -2
-19 -13z"/>
<path d="M1250 2410 c12 -8 12 -12 2 -18 -10 -7 -10 -11 2 -21 9 -8 16 -9 21
-2 8 14 -12 51 -28 51 -8 0 -6 -4 3 -10z"/>
<path d="M1171 2258 c5 -10 11 -18 12 -18 2 0 3 8 3 18 0 10 -6 19 -13 19 -8
0 -9 -6 -2 -19z"/>
<path d="M1166 2228 c16 -27 35 -29 33 -5 0 9 -2 8 -6 -1 -3 -8 -11 -5 -24 10
l-20 23 17 -27z"/>
<path d="M1140 2221 c0 -7 -5 -9 -12 -5 -7 5 -8 3 -3 -5 5 -9 10 -10 18 -2 6
6 8 14 4 18 -4 3 -7 1 -7 -6z"/>
<path d="M1101 2176 c-7 -8 -8 -17 -3 -20 6 -3 12 3 15 14 6 24 4 25 -12 6z"/>
<path d="M1074 2139 c-4 -7 -3 -9 4 -5 5 3 13 0 15 -6 4 -9 6 -10 6 -1 1 17
-16 25 -25 12z"/>
<path d="M1057 2103 c-4 -3 -7 -11 -7 -17 0 -6 5 -5 12 2 6 6 9 14 7 17 -3 3
-9 2 -12 -2z"/>
<path d="M1015 2040 c-3 -5 -1 -10 4 -10 6 0 11 5 11 10 0 6 -2 10 -4 10 -3 0
-8 -4 -11 -10z"/>
<path d="M1019 1999 c-8 -15 -8 -24 0 -32 13 -13 13 -12 15 26 2 33 0 33 -15
6z"/>
<path d="M944 1896 c-6 -6 -8 -20 -4 -31 6 -16 8 -15 13 10 6 35 6 37 -9 21z"/>
<path d="M900 1839 c-7 -11 -10 -23 -7 -25 2 -2 9 7 15 21 14 30 7 33 -8 4z"/>
<path d="M832 1737 c-16 -20 -26 -61 -13 -53 6 4 11 16 11 26 0 23 16 35 23
18 4 -9 6 -10 6 -1 1 18 -15 24 -27 10z"/>
<path d="M825 1660 c-3 -5 -1 -10 4 -10 6 0 11 5 11 10 0 6 -2 10 -4 10 -3 0
-8 -4 -11 -10z"/>
<path d="M776 1642 c-2 -4 2 -16 10 -27 8 -10 14 -14 14 -8 0 7 -5 15 -10 18
-6 4 -8 11 -5 16 4 5 4 9 1 9 -3 0 -7 -3 -10 -8z"/>
<path d="M764 1579 c1 -7 9 -13 18 -15 11 -1 15 3 11 13 -4 11 -8 12 -13 3 -6
-9 -9 -9 -13 -1 -4 8 -5 8 -3 0z"/>
<path d="M1049 1533 c-13 -17 -13 -17 6 -3 11 8 22 16 24 17 2 2 0 3 -6 3 -6
0 -17 -8 -24 -17z"/>
<path d="M694 1509 c-4 -7 -3 -9 4 -5 5 3 13 0 15 -6 4 -9 6 -10 6 -1 1 17
-16 25 -25 12z"/>
<path d="M697 1469 c4 -13 8 -18 11 -10 2 7 -1 18 -6 23 -8 8 -9 4 -5 -13z"/>
<path d="M868 1473 c7 -3 16 -2 19 1 4 3 -2 6 -13 5 -11 0 -14 -3 -6 -6z"/>
<path d="M656 1437 c-22 -36 -29 -60 -15 -51 5 3 7 10 4 15 -4 5 -2 9 3 9 9 0
36 50 30 56 -2 1 -12 -12 -22 -29z"/>
<path d="M602 1355 c-14 -30 -12 -31 10 -5 10 10 14 22 9 24 -4 3 -13 -6 -19
-19z"/>
<path d="M647 1359 c7 -7 15 -10 18 -7 3 3 -2 9 -12 12 -14 6 -15 5 -6 -5z"/>
<path d="M2025 1111 c-6 -5 -165 -100 -355 -211 -190 -112 -350 -208 -357
-214 -9 -8 -13 -90 -14 -309 -1 -164 1 -300 3 -302 2 -2 96 125 208 283 112
158 264 373 338 477 74 105 150 211 169 238 30 41 35 64 8 38z"/>
<path d="M580 1096 c0 -1 11 -15 24 -31 15 -17 26 -23 30 -16 4 6 12 8 18 5 7
-4 8 -2 4 5 -6 9 -11 9 -21 1 -10 -8 -15 -6 -20 9 -5 15 -35 39 -35 27z"/>
<path d="M640 1030 c-8 -5 -7 -9 5 -14 9 -3 14 -10 11 -14 -3 -5 0 -17 7 -26
12 -16 13 -15 13 6 0 13 -7 28 -15 35 -20 16 -9 16 23 2 14 -7 22 -17 19 -23
-4 -6 0 -6 9 1 8 7 18 11 21 8 4 -3 4 -2 1 3 -5 7 -9 8 -35 11 -5 0 -8 4 -6 9
7 9 -37 12 -53 2z"/>
<path d="M837 943 c-8 -12 30 -29 40 -19 4 3 -1 6 -9 6 -9 0 -18 5 -20 12 -3
9 -6 9 -11 1z"/>
<path d="M700 931 c0 -10 19 -25 25 -20 1 2 -3 10 -11 17 -8 7 -14 8 -14 3z"/>
<path d="M742 905 c-10 -12 -8 -22 13 -55 14 -22 27 -40 30 -40 7 0 -7 34 -22
52 -9 10 -12 25 -8 37 7 24 5 26 -13 6z"/>
<path d="M895 899 c-4 -6 -5 -12 -2 -15 2 -3 7 2 10 11 7 17 1 20 -8 4z"/>
<path d="M924 892 c4 -7 1 -12 -6 -12 -8 -1 -6 -6 6 -15 11 -8 25 -15 30 -15
6 0 3 5 -7 11 -9 6 -15 14 -12 19 3 5 0 12 -6 16 -8 4 -9 3 -5 -4z"/>
<path d="M883 855 c0 -7 6 -11 14 -8 7 3 13 6 13 8 0 2 -6 5 -13 8 -8 3 -14
-1 -14 -8z"/>
<path d="M973 857 c0 -7 11 -13 24 -13 27 -2 27 -1 -3 14 -15 8 -21 8 -21 -1z"/>
<path d="M865 820 c3 -5 8 -10 11 -10 2 0 4 5 4 10 0 6 -5 10 -11 10 -5 0 -7
-4 -4 -10z"/>
<path d="M1051 804 c7 -8 7 -14 -1 -19 -13 -8 -2 -27 13 -22 7 2 12 10 12 18
1 8 7 13 14 11 7 -1 10 2 6 7 -3 6 -13 7 -22 4 -10 -4 -14 -2 -10 4 3 5 0 10
-8 10 -11 0 -12 -4 -4 -13z"/>
<path d="M835 800 c3 -5 11 -10 16 -10 6 0 7 5 4 10 -3 6 -11 10 -16 10 -6 0
-7 -4 -4 -10z"/>
<path d="M801 788 c8 -7 18 -21 22 -32 6 -15 10 -16 22 -6 21 17 30 6 11 -13
-14 -13 -14 -16 1 -29 11 -9 14 -9 9 -1 -4 7 -2 21 4 32 13 25 -4 38 -25 21
-12 -10 -15 -9 -15 3 0 9 -10 21 -22 27 -20 9 -21 9 -7 -2z"/>
<path d="M1104 777 c-4 -6 -4 -9 1 -5 4 4 14 3 22 -4 7 -6 15 -9 18 -7 2 3 -4
10 -15 17 -15 9 -21 9 -26 -1z"/>
<path d="M1168 738 c5 -5 16 -8 23 -6 8 3 3 7 -10 11 -17 4 -21 3 -13 -5z"/>
<path d="M1130 730 c0 -5 5 -10 10 -10 6 0 10 5 10 10 0 6 -4 10 -10 10 -5 0
-10 -4 -10 -10z"/>
<path d="M946 667 c3 -10 9 -15 12 -12 3 3 0 11 -7 18 -10 9 -11 8 -5 -6z"/>
<path d="M936 638 c10 -14 21 -24 23 -22 3 3 -6 15 -18 27 l-24 22 19 -27z"/>
<path d="M910 630 c0 -5 5 -10 11 -10 5 0 7 5 4 10 -3 6 -8 10 -11 10 -2 0 -4
-4 -4 -10z"/>
<path d="M936 597 c3 -10 9 -15 12 -12 3 3 0 11 -7 18 -10 9 -11 8 -5 -6z"/>
<path d="M1005 589 c-4 -6 -5 -12 -2 -15 2 -3 7 2 10 11 7 17 1 20 -8 4z"/>
<path d="M1020 495 c0 -5 5 -17 10 -25 5 -8 10 -10 10 -5 0 6 -5 17 -10 25 -5
8 -10 11 -10 5z"/>
<path d="M1083 424 c0 -9 4 -11 12 -4 7 5 14 9 16 7 2 -1 3 0 1 2 -7 11 -29 7
-29 -5z"/>
<path d="M1106 373 c-6 -14 -5 -15 5 -6 7 7 10 15 7 18 -3 3 -9 -2 -12 -12z"/>
<path d="M1135 340 c-7 -11 14 -55 22 -46 3 3 0 13 -7 22 -12 13 -11 17 1 25
9 5 10 9 2 9 -6 0 -15 -4 -18 -10z"/>
<path d="M1165 320 c3 -5 8 -10 11 -10 2 0 4 5 4 10 0 6 -5 10 -11 10 -5 0 -7
-4 -4 -10z"/>
<path d="M1177 284 c-12 -12 -8 -26 5 -18 8 5 9 1 4 -12 -5 -14 -4 -16 4 -7 8
7 9 17 3 27 -5 9 -12 13 -16 10z"/>
<path d="M1200 235 c0 -2 14 -19 31 -37 l31 -33 -16 31 c-12 26 -46 54 -46 39z"/>
<path d="M1275 141 c-3 -5 -1 -12 5 -16 5 -3 10 1 10 9 0 18 -6 21 -15 7z"/>
</g>
</svg>
